<?xml version="1.0" encoding="utf-8" standalone="no"?>
<!DOCTYPE svg PUBLIC "-//W3C//DTD SVG 1.1//EN"
  "http://www.w3.org/Graphics/SVG/1.1/DTD/svg11.dtd">
<svg xmlns:xlink="http://www.w3.org/1999/xlink" width="852.48pt" height="420.48pt" viewBox="0 0 852.48 420.48" xmlns="http://www.w3.org/2000/svg" version="1.1">
 <metadata>
  <rdf:RDF xmlns:dc="http://purl.org/dc/elements/1.1/" xmlns:cc="http://creativecommons.org/ns#" xmlns:rdf="http://www.w3.org/1999/02/22-rdf-syntax-ns#">
   <cc:Work>
    <dc:type rdf:resource="http://purl.org/dc/dcmitype/StillImage"/>
    <dc:date>2026-04-19T23:46:17.607322</dc:date>
    <dc:format>image/svg+xml</dc:format>
    <dc:creator>
     <cc:Agent>
      <dc:title>Matplotlib v3.10.0, https://matplotlib.org/</dc:title>
     </cc:Agent>
    </dc:creator>
   </cc:Work>
  </rdf:RDF>
 </metadata>
 <defs>
  <style type="text/css">*{stroke-linejoin: round; stroke-linecap: butt}</style>
 </defs>
 <g id="figure_1">
  <g id="patch_1">
   <path d="M 0 420.48 
L 852.48 420.48 
L 852.48 0 
L 0 0 
z
" style="fill: #ffffff"/>
  </g>
  <g id="axes_1">
   <g id="patch_2">
    <path d="M 74.2464 165.5712 
L 258.624 165.5712 
Q 275.3856 165.5712 275.3856 157.4496 
L 275.3856 84.3552 
Q 275.3856 76.2336 258.624 76.2336 
L 74.2464 76.2336 
Q 57.4848 76.2336 57.4848 84.3552 
L 57.4848 157.4496 
Q 57.4848 165.5712 74.2464 165.5712 
z
" clip-path="url(#p0bb716f0d5)" style="fill: #eaf2f8"/>
   </g>
   <g id="patch_3">
    <path d="M 334.0512 165.5712 
L 518.4288 165.5712 
Q 535.1904 165.5712 535.1904 157.4496 
L 535.1904 84.3552 
Q 535.1904 76.2336 518.4288 76.2336 
L 334.0512 76.2336 
Q 317.2896 76.2336 317.2896 84.3552 
L 317.2896 157.4496 
Q 317.2896 165.5712 334.0512 165.5712 
z
" clip-path="url(#p0bb716f0d5)" style="fill: #eaf2f8"/>
   </g>
   <g id="patch_4">
    <path d="M 593.856 165.5712 
L 778.2336 165.5712 
Q 794.9952 165.5712 794.9952 157.4496 
L 794.9952 84.3552 
Q 794.9952 76.2336 778.2336 76.2336 
L 593.856 76.2336 
Q 577.0944 76.2336 577.0944 84.3552 
L 577.0944 157.4496 
Q 577.0944 165.5712 593.856 165.5712 
z
" clip-path="url(#p0bb716f0d5)" style="fill: #eaf2f8"/>
   </g>
   <g id="patch_5">
    <path d="M 199.9584 328.0032 
L 384.336 328.0032 
Q 401.0976 328.0032 401.0976 319.8816 
L 401.0976 246.7872 
Q 401.0976 238.6656 384.336 238.6656 
L 199.9584 238.6656 
Q 183.1968 238.6656 183.1968 246.7872 
L 183.1968 319.8816 
Q 183.1968 328.0032 199.9584 328.0032 
z
" clip-path="url(#p0bb716f0d5)" style="fill: #eaf2f8"/>
   </g>
   <g id="patch_6">
    <path d="M 459.7632 328.0032 
L 644.1408 328.0032 
Q 660.9024 328.0032 660.9024 319.8816 
L 660.9024 246.7872 
Q 660.9024 238.6656 644.1408 238.6656 
L 459.7632 238.6656 
Q 443.0016 238.6656 443.0016 246.7872 
L 443.0016 319.8816 
Q 443.0016 328.0032 459.7632 328.0032 
z
" clip-path="url(#p0bb716f0d5)" style="fill: #eaf2f8"/>
   </g>
   <g id="text_1">
    <!-- Perfil do cliente -->
    <g style="fill: #111827" transform="translate(119.9652 97.3389) scale(0.12 -0.12)">
     <defs>
      <path id="DejaVuSans-50" d="M 1259 4147 
L 1259 2394 
L 2053 2394 
Q 2494 2394 2734 2622 
Q 2975 2850 2975 3272 
Q 2975 3691 2734 3919 
Q 2494 4147 2053 4147 
L 1259 4147 
z
M 628 4666 
L 2053 4666 
Q 2838 4666 3239 4311 
Q 3641 3956 3641 3272 
Q 3641 2581 3239 2228 
Q 2838 1875 2053 1875 
L 1259 1875 
L 1259 0 
L 628 0 
L 628 4666 
z
" transform="scale(0.015625)"/>
      <path id="DejaVuSans-65" d="M 3597 1894 
L 3597 1613 
L 953 1613 
Q 991 1019 1311 708 
Q 1631 397 2203 397 
Q 2534 397 2845 478 
Q 3156 559 3463 722 
L 3463 178 
Q 3153 47 2828 -22 
Q 2503 -91 2169 -91 
Q 1331 -91 842 396 
Q 353 884 353 1716 
Q 353 2575 817 3079 
Q 1281 3584 2069 3584 
Q 2775 3584 3186 3129 
Q 3597 2675 3597 1894 
z
M 3022 2063 
Q 3016 2534 2758 2815 
Q 2500 3097 2075 3097 
Q 1594 3097 1305 2825 
Q 1016 2553 972 2059 
L 3022 2063 
z
" transform="scale(0.015625)"/>
      <path id="DejaVuSans-72" d="M 2631 2963 
Q 2534 3019 2420 3045 
Q 2306 3072 2169 3072 
Q 1681 3072 1420 2755 
Q 1159 2438 1159 1844 
L 1159 0 
L 581 0 
L 581 3500 
L 1159 3500 
L 1159 2956 
Q 1341 3275 1631 3429 
Q 1922 3584 2338 3584 
Q 2397 3584 2469 3576 
Q 2541 3569 2628 3553 
L 2631 2963 
z
" transform="scale(0.015625)"/>
      <path id="DejaVuSans-66" d="M 2375 4863 
L 2375 4384 
L 1825 4384 
Q 1516 4384 1395 4259 
Q 1275 4134 1275 3809 
L 1275 3500 
L 2222 3500 
L 2222 3053 
L 1275 3053 
L 1275 0 
L 697 0 
L 697 3053 
L 147 3053 
L 147 3500 
L 697 3500 
L 697 3744 
Q 697 4328 969 4595 
Q 1241 4863 1831 4863 
L 2375 4863 
z
" transform="scale(0.015625)"/>
      <path id="DejaVuSans-69" d="M 603 3500 
L 1178 3500 
L 1178 0 
L 603 0 
L 603 3500 
z
M 603 4863 
L 1178 4863 
L 1178 4134 
L 603 4134 
L 603 4863 
z
" transform="scale(0.015625)"/>
      <path id="DejaVuSans-6c" d="M 603 4863 
L 1178 4863 
L 1178 0 
L 603 0 
L 603 4863 
z
" transform="scale(0.015625)"/>
      <path id="DejaVuSans-20" transform="scale(0.015625)"/>
      <path id="DejaVuSans-64" d="M 2906 2969 
L 2906 4863 
L 3481 4863 
L 3481 0 
L 2906 0 
L 2906 525 
Q 2725 213 2448 61 
Q 2172 -91 1784 -91 
Q 1150 -91 751 415 
Q 353 922 353 1747 
Q 353 2572 751 3078 
Q 1150 3584 1784 3584 
Q 2172 3584 2448 3432 
Q 2725 3281 2906 2969 
z
M 947 1747 
Q 947 1113 1208 752 
Q 1469 391 1925 391 
Q 2381 391 2643 752 
Q 2906 1113 2906 1747 
Q 2906 2381 2643 2742 
Q 2381 3103 1925 3103 
Q 1469 3103 1208 2742 
Q 947 2381 947 1747 
z
" transform="scale(0.015625)"/>
      <path id="DejaVuSans-6f" d="M 1959 3097 
Q 1497 3097 1228 2736 
Q 959 2375 959 1747 
Q 959 1119 1226 758 
Q 1494 397 1959 397 
Q 2419 397 2687 759 
Q 2956 1122 2956 1747 
Q 2956 2369 2687 2733 
Q 2419 3097 1959 3097 
z
M 1959 3584 
Q 2709 3584 3137 3096 
Q 3566 2609 3566 1747 
Q 3566 888 3137 398 
Q 2709 -91 1959 -91 
Q 1206 -91 779 398 
Q 353 888 353 1747 
Q 353 2609 779 3096 
Q 1206 3584 1959 3584 
z
" transform="scale(0.015625)"/>
      <path id="DejaVuSans-63" d="M 3122 3366 
L 3122 2828 
Q 2878 2963 2633 3030 
Q 2388 3097 2138 3097 
Q 1578 3097 1268 2742 
Q 959 2388 959 1747 
Q 959 1106 1268 751 
Q 1578 397 2138 397 
Q 2388 397 2633 464 
Q 2878 531 3122 666 
L 3122 134 
Q 2881 22 2623 -34 
Q 2366 -91 2075 -91 
Q 1284 -91 818 406 
Q 353 903 353 1747 
Q 353 2603 823 3093 
Q 1294 3584 2113 3584 
Q 2378 3584 2631 3529 
Q 2884 3475 3122 3366 
z
" transform="scale(0.015625)"/>
      <path id="DejaVuSans-6e" d="M 3513 2113 
L 3513 0 
L 2938 0 
L 2938 2094 
Q 2938 2591 2744 2837 
Q 2550 3084 2163 3084 
Q 1697 3084 1428 2787 
Q 1159 2491 1159 1978 
L 1159 0 
L 581 0 
L 581 3500 
L 1159 3500 
L 1159 2956 
Q 1366 3272 1645 3428 
Q 1925 3584 2291 3584 
Q 2894 3584 3203 3211 
Q 3513 2838 3513 2113 
z
" transform="scale(0.015625)"/>
      <path id="DejaVuSans-74" d="M 1172 4494 
L 1172 3500 
L 2356 3500 
L 2356 3053 
L 1172 3053 
L 1172 1153 
Q 1172 725 1289 603 
Q 1406 481 1766 481 
L 2356 481 
L 2356 0 
L 1766 0 
Q 1100 0 847 248 
Q 594 497 594 1153 
L 594 3053 
L 172 3053 
L 172 3500 
L 594 3500 
L 594 4494 
L 1172 4494 
z
" transform="scale(0.015625)"/>
     </defs>
     <use xlink:href="#DejaVuSans-50"/>
     <use xlink:href="#DejaVuSans-65" transform="translate(56.677734 0)"/>
     <use xlink:href="#DejaVuSans-72" transform="translate(118.201172 0)"/>
     <use xlink:href="#DejaVuSans-66" transform="translate(159.314453 0)"/>
     <use xlink:href="#DejaVuSans-69" transform="translate(194.519531 0)"/>
     <use xlink:href="#DejaVuSans-6c" transform="translate(222.302734 0)"/>
     <use xlink:href="#DejaVuSans-20" transform="translate(250.085938 0)"/>
     <use xlink:href="#DejaVuSans-64" transform="translate(281.873047 0)"/>
     <use xlink:href="#DejaVuSans-6f" transform="translate(345.349609 0)"/>
     <use xlink:href="#DejaVuSans-20" transform="translate(406.53125 0)"/>
     <use xlink:href="#DejaVuSans-63" transform="translate(438.318359 0)"/>
     <use xlink:href="#DejaVuSans-6c" transform="translate(493.298828 0)"/>
     <use xlink:href="#DejaVuSans-69" transform="translate(521.082031 0)"/>
     <use xlink:href="#DejaVuSans-65" transform="translate(548.865234 0)"/>
     <use xlink:href="#DejaVuSans-6e" transform="translate(610.388672 0)"/>
     <use xlink:href="#DejaVuSans-74" transform="translate(673.767578 0)"/>
     <use xlink:href="#DejaVuSans-65" transform="translate(712.976562 0)"/>
    </g>
    <!--  -->
    <g style="fill: #111827" transform="translate(166.4352 110.776275) scale(0.12 -0.12)"/>
    <!-- idade -->
    <g style="fill: #111827" transform="translate(149.78145 124.21365) scale(0.12 -0.12)">
     <defs>
      <path id="DejaVuSans-61" d="M 2194 1759 
Q 1497 1759 1228 1600 
Q 959 1441 959 1056 
Q 959 750 1161 570 
Q 1363 391 1709 391 
Q 2188 391 2477 730 
Q 2766 1069 2766 1631 
L 2766 1759 
L 2194 1759 
z
M 3341 1997 
L 3341 0 
L 2766 0 
L 2766 531 
Q 2569 213 2275 61 
Q 1981 -91 1556 -91 
Q 1019 -91 701 211 
Q 384 513 384 1019 
Q 384 1609 779 1909 
Q 1175 2209 1959 2209 
L 2766 2209 
L 2766 2266 
Q 2766 2663 2505 2880 
Q 2244 3097 1772 3097 
Q 1472 3097 1187 3025 
Q 903 2953 641 2809 
L 641 3341 
Q 956 3463 1253 3523 
Q 1550 3584 1831 3584 
Q 2591 3584 2966 3190 
Q 3341 2797 3341 1997 
z
" transform="scale(0.015625)"/>
     </defs>
     <use xlink:href="#DejaVuSans-69"/>
     <use xlink:href="#DejaVuSans-64" transform="translate(27.783203 0)"/>
     <use xlink:href="#DejaVuSans-61" transform="translate(91.259766 0)"/>
     <use xlink:href="#DejaVuSans-64" transform="translate(152.539062 0)"/>
     <use xlink:href="#DejaVuSans-65" transform="translate(216.015625 0)"/>
    </g>
    <!-- residência -->
    <g style="fill: #111827" transform="translate(135.673012 137.651025) scale(0.12 -0.12)">
     <defs>
      <path id="DejaVuSans-73" d="M 2834 3397 
L 2834 2853 
Q 2591 2978 2328 3040 
Q 2066 3103 1784 3103 
Q 1356 3103 1142 2972 
Q 928 2841 928 2578 
Q 928 2378 1081 2264 
Q 1234 2150 1697 2047 
L 1894 2003 
Q 2506 1872 2764 1633 
Q 3022 1394 3022 966 
Q 3022 478 2636 193 
Q 2250 -91 1575 -91 
Q 1294 -91 989 -36 
Q 684 19 347 128 
L 347 722 
Q 666 556 975 473 
Q 1284 391 1588 391 
Q 1994 391 2212 530 
Q 2431 669 2431 922 
Q 2431 1156 2273 1281 
Q 2116 1406 1581 1522 
L 1381 1569 
Q 847 1681 609 1914 
Q 372 2147 372 2553 
Q 372 3047 722 3315 
Q 1072 3584 1716 3584 
Q 2034 3584 2315 3537 
Q 2597 3491 2834 3397 
z
" transform="scale(0.015625)"/>
      <path id="DejaVuSans-ea" d="M 3597 1894 
L 3597 1613 
L 953 1613 
Q 991 1019 1311 708 
Q 1631 397 2203 397 
Q 2534 397 2845 478 
Q 3156 559 3463 722 
L 3463 178 
Q 3153 47 2828 -22 
Q 2503 -91 2169 -91 
Q 1331 -91 842 396 
Q 353 884 353 1716 
Q 353 2575 817 3079 
Q 1281 3584 2069 3584 
Q 2775 3584 3186 3129 
Q 3597 2675 3597 1894 
z
M 3022 2063 
Q 3016 2534 2758 2815 
Q 2500 3097 2075 3097 
Q 1594 3097 1305 2825 
Q 1016 2553 972 2059 
L 3022 2063 
z
M 1801 5119 
L 2263 5119 
L 3029 3944 
L 2595 3944 
L 2032 4709 
L 1470 3944 
L 1035 3944 
L 1801 5119 
z
" transform="scale(0.015625)"/>
     </defs>
     <use xlink:href="#DejaVuSans-72"/>
     <use xlink:href="#DejaVuSans-65" transform="translate(38.863281 0)"/>
     <use xlink:href="#DejaVuSans-73" transform="translate(100.386719 0)"/>
     <use xlink:href="#DejaVuSans-69" transform="translate(152.486328 0)"/>
     <use xlink:href="#DejaVuSans-64" transform="translate(180.269531 0)"/>
     <use xlink:href="#DejaVuSans-ea" transform="translate(243.746094 0)"/>
     <use xlink:href="#DejaVuSans-6e" transform="translate(305.269531 0)"/>
     <use xlink:href="#DejaVuSans-63" transform="translate(368.648438 0)"/>
     <use xlink:href="#DejaVuSans-69" transform="translate(423.628906 0)"/>
     <use xlink:href="#DejaVuSans-61" transform="translate(451.412109 0)"/>
    </g>
    <!-- emprego -->
    <g style="fill: #111827" transform="translate(139.586137 151.0884) scale(0.12 -0.12)">
     <defs>
      <path id="DejaVuSans-6d" d="M 3328 2828 
Q 3544 3216 3844 3400 
Q 4144 3584 4550 3584 
Q 5097 3584 5394 3201 
Q 5691 2819 5691 2113 
L 5691 0 
L 5113 0 
L 5113 2094 
Q 5113 2597 4934 2840 
Q 4756 3084 4391 3084 
Q 3944 3084 3684 2787 
Q 3425 2491 3425 1978 
L 3425 0 
L 2847 0 
L 2847 2094 
Q 2847 2600 2669 2842 
Q 2491 3084 2119 3084 
Q 1678 3084 1418 2786 
Q 1159 2488 1159 1978 
L 1159 0 
L 581 0 
L 581 3500 
L 1159 3500 
L 1159 2956 
Q 1356 3278 1631 3431 
Q 1906 3584 2284 3584 
Q 2666 3584 2933 3390 
Q 3200 3197 3328 2828 
z
" transform="scale(0.015625)"/>
      <path id="DejaVuSans-70" d="M 1159 525 
L 1159 -1331 
L 581 -1331 
L 581 3500 
L 1159 3500 
L 1159 2969 
Q 1341 3281 1617 3432 
Q 1894 3584 2278 3584 
Q 2916 3584 3314 3078 
Q 3713 2572 3713 1747 
Q 3713 922 3314 415 
Q 2916 -91 2278 -91 
Q 1894 -91 1617 61 
Q 1341 213 1159 525 
z
M 3116 1747 
Q 3116 2381 2855 2742 
Q 2594 3103 2138 3103 
Q 1681 3103 1420 2742 
Q 1159 2381 1159 1747 
Q 1159 1113 1420 752 
Q 1681 391 2138 391 
Q 2594 391 2855 752 
Q 3116 1113 3116 1747 
z
" transform="scale(0.015625)"/>
      <path id="DejaVuSans-67" d="M 2906 1791 
Q 2906 2416 2648 2759 
Q 2391 3103 1925 3103 
Q 1463 3103 1205 2759 
Q 947 2416 947 1791 
Q 947 1169 1205 825 
Q 1463 481 1925 481 
Q 2391 481 2648 825 
Q 2906 1169 2906 1791 
z
M 3481 434 
Q 3481 -459 3084 -895 
Q 2688 -1331 1869 -1331 
Q 1566 -1331 1297 -1286 
Q 1028 -1241 775 -1147 
L 775 -588 
Q 1028 -725 1275 -790 
Q 1522 -856 1778 -856 
Q 2344 -856 2625 -561 
Q 2906 -266 2906 331 
L 2906 616 
Q 2728 306 2450 153 
Q 2172 0 1784 0 
Q 1141 0 747 490 
Q 353 981 353 1791 
Q 353 2603 747 3093 
Q 1141 3584 1784 3584 
Q 2172 3584 2450 3431 
Q 2728 3278 2906 2969 
L 2906 3500 
L 3481 3500 
L 3481 434 
z
" transform="scale(0.015625)"/>
     </defs>
     <use xlink:href="#DejaVuSans-65"/>
     <use xlink:href="#DejaVuSans-6d" transform="translate(61.523438 0)"/>
     <use xlink:href="#DejaVuSans-70" transform="translate(158.935547 0)"/>
     <use xlink:href="#DejaVuSans-72" transform="translate(222.412109 0)"/>
     <use xlink:href="#DejaVuSans-65" transform="translate(261.275391 0)"/>
     <use xlink:href="#DejaVuSans-67" transform="translate(322.798828 0)"/>
     <use xlink:href="#DejaVuSans-6f" transform="translate(386.275391 0)"/>
    </g>
   </g>
   <g id="text_2">
    <!-- Contrato -->
    <g style="fill: #111827" transform="translate(400.0575 97.3254) scale(0.12 -0.12)">
     <defs>
      <path id="DejaVuSans-43" d="M 4122 4306 
L 4122 3641 
Q 3803 3938 3442 4084 
Q 3081 4231 2675 4231 
Q 1875 4231 1450 3742 
Q 1025 3253 1025 2328 
Q 1025 1406 1450 917 
Q 1875 428 2675 428 
Q 3081 428 3442 575 
Q 3803 722 4122 1019 
L 4122 359 
Q 3791 134 3420 21 
Q 3050 -91 2638 -91 
Q 1578 -91 968 557 
Q 359 1206 359 2328 
Q 359 3453 968 4101 
Q 1578 4750 2638 4750 
Q 3056 4750 3426 4639 
Q 3797 4528 4122 4306 
z
" transform="scale(0.015625)"/>
     </defs>
     <use xlink:href="#DejaVuSans-43"/>
     <use xlink:href="#DejaVuSans-6f" transform="translate(69.824219 0)"/>
     <use xlink:href="#DejaVuSans-6e" transform="translate(131.005859 0)"/>
     <use xlink:href="#DejaVuSans-74" transform="translate(194.384766 0)"/>
     <use xlink:href="#DejaVuSans-72" transform="translate(233.59375 0)"/>
     <use xlink:href="#DejaVuSans-61" transform="translate(274.707031 0)"/>
     <use xlink:href="#DejaVuSans-74" transform="translate(335.986328 0)"/>
     <use xlink:href="#DejaVuSans-6f" transform="translate(375.195312 0)"/>
    </g>
    <!--  -->
    <g style="fill: #111827" transform="translate(426.24 110.762775) scale(0.12 -0.12)"/>
    <!-- valor -->
    <g style="fill: #111827" transform="translate(411.207187 124.20015) scale(0.12 -0.12)">
     <defs>
      <path id="DejaVuSans-76" d="M 191 3500 
L 800 3500 
L 1894 563 
L 2988 3500 
L 3597 3500 
L 2284 0 
L 1503 0 
L 191 3500 
z
" transform="scale(0.015625)"/>
     </defs>
     <use xlink:href="#DejaVuSans-76"/>
     <use xlink:href="#DejaVuSans-61" transform="translate(59.179688 0)"/>
     <use xlink:href="#DejaVuSans-6c" transform="translate(120.458984 0)"/>
     <use xlink:href="#DejaVuSans-6f" transform="translate(148.242188 0)"/>
     <use xlink:href="#DejaVuSans-72" transform="translate(209.423828 0)"/>
    </g>
    <!-- duração -->
    <g style="fill: #111827" transform="translate(401.837812 137.664525) scale(0.12 -0.12)">
     <defs>
      <path id="DejaVuSans-75" d="M 544 1381 
L 544 3500 
L 1119 3500 
L 1119 1403 
Q 1119 906 1312 657 
Q 1506 409 1894 409 
Q 2359 409 2629 706 
Q 2900 1003 2900 1516 
L 2900 3500 
L 3475 3500 
L 3475 0 
L 2900 0 
L 2900 538 
Q 2691 219 2414 64 
Q 2138 -91 1772 -91 
Q 1169 -91 856 284 
Q 544 659 544 1381 
z
M 1991 3584 
L 1991 3584 
z
" transform="scale(0.015625)"/>
      <path id="DejaVuSans-e7" d="M 3122 3366 
L 3122 2828 
Q 2878 2963 2633 3030 
Q 2388 3097 2138 3097 
Q 1578 3097 1268 2742 
Q 959 2388 959 1747 
Q 959 1106 1268 751 
Q 1578 397 2138 397 
Q 2388 397 2633 464 
Q 2878 531 3122 666 
L 3122 134 
Q 2881 22 2623 -34 
Q 2366 -91 2075 -91 
Q 1284 -91 818 406 
Q 353 903 353 1747 
Q 353 2603 823 3093 
Q 1294 3584 2113 3584 
Q 2378 3584 2631 3529 
Q 2884 3475 3122 3366 
z
M 2311 0 
Q 2482 -194 2566 -358 
Q 2651 -522 2651 -672 
Q 2651 -950 2463 -1092 
Q 2276 -1234 1907 -1234 
Q 1764 -1234 1628 -1215 
Q 1492 -1197 1357 -1159 
L 1357 -750 
Q 1464 -803 1579 -826 
Q 1695 -850 1842 -850 
Q 2026 -850 2120 -775 
Q 2214 -700 2214 -556 
Q 2214 -463 2146 -327 
Q 2079 -191 1939 0 
L 2311 0 
z
" transform="scale(0.015625)"/>
      <path id="DejaVuSans-e3" d="M 2194 1759 
Q 1497 1759 1228 1600 
Q 959 1441 959 1056 
Q 959 750 1161 570 
Q 1363 391 1709 391 
Q 2188 391 2477 730 
Q 2766 1069 2766 1631 
L 2766 1759 
L 2194 1759 
z
M 3341 1997 
L 3341 0 
L 2766 0 
L 2766 531 
Q 2569 213 2275 61 
Q 1981 -91 1556 -91 
Q 1019 -91 701 211 
Q 384 513 384 1019 
Q 384 1609 779 1909 
Q 1175 2209 1959 2209 
L 2766 2209 
L 2766 2266 
Q 2766 2663 2505 2880 
Q 2244 3097 1772 3097 
Q 1472 3097 1187 3025 
Q 903 2953 641 2809 
L 641 3341 
Q 956 3463 1253 3523 
Q 1550 3584 1831 3584 
Q 2591 3584 2966 3190 
Q 3341 2797 3341 1997 
z
M 1844 4281 
L 1665 4453 
Q 1597 4516 1545 4545 
Q 1494 4575 1453 4575 
Q 1334 4575 1278 4461 
Q 1222 4347 1215 4091 
L 825 4091 
Q 831 4513 990 4742 
Q 1150 4972 1434 4972 
Q 1553 4972 1653 4928 
Q 1753 4884 1869 4781 
L 2047 4609 
Q 2115 4547 2167 4517 
Q 2219 4488 2259 4488 
Q 2378 4488 2434 4602 
Q 2490 4716 2497 4972 
L 2887 4972 
Q 2881 4550 2721 4320 
Q 2562 4091 2278 4091 
Q 2159 4091 2059 4134 
Q 1959 4178 1844 4281 
z
" transform="scale(0.015625)"/>
     </defs>
     <use xlink:href="#DejaVuSans-64"/>
     <use xlink:href="#DejaVuSans-75" transform="translate(63.476562 0)"/>
     <use xlink:href="#DejaVuSans-72" transform="translate(126.855469 0)"/>
     <use xlink:href="#DejaVuSans-61" transform="translate(167.96875 0)"/>
     <use xlink:href="#DejaVuSans-e7" transform="translate(229.248047 0)"/>
     <use xlink:href="#DejaVuSans-e3" transform="translate(284.228516 0)"/>
     <use xlink:href="#DejaVuSans-6f" transform="translate(345.507812 0)"/>
    </g>
    <!-- parcelas -->
    <g style="fill: #111827" transform="translate(400.962187 151.1019) scale(0.12 -0.12)">
     <use xlink:href="#DejaVuSans-70"/>
     <use xlink:href="#DejaVuSans-61" transform="translate(63.476562 0)"/>
     <use xlink:href="#DejaVuSans-72" transform="translate(124.755859 0)"/>
     <use xlink:href="#DejaVuSans-63" transform="translate(163.619141 0)"/>
     <use xlink:href="#DejaVuSans-65" transform="translate(218.599609 0)"/>
     <use xlink:href="#DejaVuSans-6c" transform="translate(280.123047 0)"/>
     <use xlink:href="#DejaVuSans-61" transform="translate(307.90625 0)"/>
     <use xlink:href="#DejaVuSans-73" transform="translate(369.185547 0)"/>
    </g>
   </g>
   <g id="text_3">
    <!-- Histórico -->
    <g style="fill: #111827" transform="translate(659.612925 97.3389) scale(0.12 -0.12)">
     <defs>
      <path id="DejaVuSans-48" d="M 628 4666 
L 1259 4666 
L 1259 2753 
L 3553 2753 
L 3553 4666 
L 4184 4666 
L 4184 0 
L 3553 0 
L 3553 2222 
L 1259 2222 
L 1259 0 
L 628 0 
L 628 4666 
z
" transform="scale(0.015625)"/>
      <path id="DejaVuSans-f3" d="M 1959 3097 
Q 1497 3097 1228 2736 
Q 959 2375 959 1747 
Q 959 1119 1226 758 
Q 1494 397 1959 397 
Q 2419 397 2687 759 
Q 2956 1122 2956 1747 
Q 2956 2369 2687 2733 
Q 2419 3097 1959 3097 
z
M 1959 3584 
Q 2709 3584 3137 3096 
Q 3566 2609 3566 1747 
Q 3566 888 3137 398 
Q 2709 -91 1959 -91 
Q 1206 -91 779 398 
Q 353 888 353 1747 
Q 353 2609 779 3096 
Q 1206 3584 1959 3584 
z
M 2394 5119 
L 3016 5119 
L 1998 3944 
L 1519 3944 
L 2394 5119 
z
" transform="scale(0.015625)"/>
     </defs>
     <use xlink:href="#DejaVuSans-48"/>
     <use xlink:href="#DejaVuSans-69" transform="translate(75.195312 0)"/>
     <use xlink:href="#DejaVuSans-73" transform="translate(102.978516 0)"/>
     <use xlink:href="#DejaVuSans-74" transform="translate(155.078125 0)"/>
     <use xlink:href="#DejaVuSans-f3" transform="translate(194.287109 0)"/>
     <use xlink:href="#DejaVuSans-72" transform="translate(255.46875 0)"/>
     <use xlink:href="#DejaVuSans-69" transform="translate(296.582031 0)"/>
     <use xlink:href="#DejaVuSans-63" transform="translate(324.365234 0)"/>
     <use xlink:href="#DejaVuSans-6f" transform="translate(379.345703 0)"/>
    </g>
    <!--  -->
    <g style="fill: #111827" transform="translate(686.0448 110.776275) scale(0.12 -0.12)"/>
    <!-- créditos anteriores -->
    <g style="fill: #111827" transform="translate(629.713237 124.21365) scale(0.12 -0.12)">
     <defs>
      <path id="DejaVuSans-e9" d="M 3597 1894 
L 3597 1613 
L 953 1613 
Q 991 1019 1311 708 
Q 1631 397 2203 397 
Q 2534 397 2845 478 
Q 3156 559 3463 722 
L 3463 178 
Q 3153 47 2828 -22 
Q 2503 -91 2169 -91 
Q 1331 -91 842 396 
Q 353 884 353 1716 
Q 353 2575 817 3079 
Q 1281 3584 2069 3584 
Q 2775 3584 3186 3129 
Q 3597 2675 3597 1894 
z
M 3022 2063 
Q 3016 2534 2758 2815 
Q 2500 3097 2075 3097 
Q 1594 3097 1305 2825 
Q 1016 2553 972 2059 
L 3022 2063 
z
M 2466 5119 
L 3088 5119 
L 2070 3944 
L 1591 3944 
L 2466 5119 
z
" transform="scale(0.015625)"/>
     </defs>
     <use xlink:href="#DejaVuSans-63"/>
     <use xlink:href="#DejaVuSans-72" transform="translate(54.980469 0)"/>
     <use xlink:href="#DejaVuSans-e9" transform="translate(93.84375 0)"/>
     <use xlink:href="#DejaVuSans-64" transform="translate(155.367188 0)"/>
     <use xlink:href="#DejaVuSans-69" transform="translate(218.84375 0)"/>
     <use xlink:href="#DejaVuSans-74" transform="translate(246.626953 0)"/>
     <use xlink:href="#DejaVuSans-6f" transform="translate(285.835938 0)"/>
     <use xlink:href="#DejaVuSans-73" transform="translate(347.017578 0)"/>
     <use xlink:href="#DejaVuSans-20" transform="translate(399.117188 0)"/>
     <use xlink:href="#DejaVuSans-61" transform="translate(430.904297 0)"/>
     <use xlink:href="#DejaVuSans-6e" transform="translate(492.183594 0)"/>
     <use xlink:href="#DejaVuSans-74" transform="translate(555.5625 0)"/>
     <use xlink:href="#DejaVuSans-65" transform="translate(594.771484 0)"/>
     <use xlink:href="#DejaVuSans-72" transform="translate(656.294922 0)"/>
     <use xlink:href="#DejaVuSans-69" transform="translate(697.408203 0)"/>
     <use xlink:href="#DejaVuSans-6f" transform="translate(725.191406 0)"/>
     <use xlink:href="#DejaVuSans-72" transform="translate(786.373047 0)"/>
     <use xlink:href="#DejaVuSans-65" transform="translate(825.236328 0)"/>
     <use xlink:href="#DejaVuSans-73" transform="translate(886.759766 0)"/>
    </g>
    <!-- atrasos -->
    <g style="fill: #111827" transform="translate(663.9498 137.651025) scale(0.12 -0.12)">
     <use xlink:href="#DejaVuSans-61"/>
     <use xlink:href="#DejaVuSans-74" transform="translate(61.279297 0)"/>
     <use xlink:href="#DejaVuSans-72" transform="translate(100.488281 0)"/>
     <use xlink:href="#DejaVuSans-61" transform="translate(141.601562 0)"/>
     <use xlink:href="#DejaVuSans-73" transform="translate(202.880859 0)"/>
     <use xlink:href="#DejaVuSans-6f" transform="translate(254.980469 0)"/>
     <use xlink:href="#DejaVuSans-73" transform="translate(316.162109 0)"/>
    </g>
    <!-- garantias -->
    <g style="fill: #111827" transform="translate(657.791362 151.0884) scale(0.12 -0.12)">
     <use xlink:href="#DejaVuSans-67"/>
     <use xlink:href="#DejaVuSans-61" transform="translate(63.476562 0)"/>
     <use xlink:href="#DejaVuSans-72" transform="translate(124.755859 0)"/>
     <use xlink:href="#DejaVuSans-61" transform="translate(165.869141 0)"/>
     <use xlink:href="#DejaVuSans-6e" transform="translate(227.148438 0)"/>
     <use xlink:href="#DejaVuSans-74" transform="translate(290.527344 0)"/>
     <use xlink:href="#DejaVuSans-69" transform="translate(329.736328 0)"/>
     <use xlink:href="#DejaVuSans-61" transform="translate(357.519531 0)"/>
     <use xlink:href="#DejaVuSans-73" transform="translate(418.798828 0)"/>
    </g>
   </g>
   <g id="text_4">
    <!-- Propósito -->
    <g style="fill: #111827" transform="translate(264.335325 259.7094) scale(0.12 -0.12)">
     <use xlink:href="#DejaVuSans-50"/>
     <use xlink:href="#DejaVuSans-72" transform="translate(58.552734 0)"/>
     <use xlink:href="#DejaVuSans-6f" transform="translate(97.416016 0)"/>
     <use xlink:href="#DejaVuSans-70" transform="translate(158.597656 0)"/>
     <use xlink:href="#DejaVuSans-f3" transform="translate(222.074219 0)"/>
     <use xlink:href="#DejaVuSans-73" transform="translate(283.255859 0)"/>
     <use xlink:href="#DejaVuSans-69" transform="translate(335.355469 0)"/>
     <use xlink:href="#DejaVuSans-74" transform="translate(363.138672 0)"/>
     <use xlink:href="#DejaVuSans-6f" transform="translate(402.347656 0)"/>
    </g>
    <!--  -->
    <g style="fill: #111827" transform="translate(292.1472 273.146775) scale(0.12 -0.12)"/>
    <!-- carro -->
    <g style="fill: #111827" transform="translate(276.806888 286.58415) scale(0.12 -0.12)">
     <use xlink:href="#DejaVuSans-63"/>
     <use xlink:href="#DejaVuSans-61" transform="translate(54.980469 0)"/>
     <use xlink:href="#DejaVuSans-72" transform="translate(116.259766 0)"/>
     <use xlink:href="#DejaVuSans-72" transform="translate(155.623047 0)"/>
     <use xlink:href="#DejaVuSans-6f" transform="translate(194.486328 0)"/>
    </g>
    <!-- negócio -->
    <g style="fill: #111827" transform="translate(268.535325 300.597525) scale(0.12 -0.12)">
     <use xlink:href="#DejaVuSans-6e"/>
     <use xlink:href="#DejaVuSans-65" transform="translate(63.378906 0)"/>
     <use xlink:href="#DejaVuSans-67" transform="translate(124.902344 0)"/>
     <use xlink:href="#DejaVuSans-f3" transform="translate(188.378906 0)"/>
     <use xlink:href="#DejaVuSans-63" transform="translate(249.560547 0)"/>
     <use xlink:href="#DejaVuSans-69" transform="translate(304.541016 0)"/>
     <use xlink:href="#DejaVuSans-6f" transform="translate(332.324219 0)"/>
    </g>
    <!-- educação -->
    <g style="fill: #111827" transform="translate(263.220638 314.0619) scale(0.12 -0.12)">
     <use xlink:href="#DejaVuSans-65"/>
     <use xlink:href="#DejaVuSans-64" transform="translate(61.523438 0)"/>
     <use xlink:href="#DejaVuSans-75" transform="translate(125 0)"/>
     <use xlink:href="#DejaVuSans-63" transform="translate(188.378906 0)"/>
     <use xlink:href="#DejaVuSans-61" transform="translate(243.359375 0)"/>
     <use xlink:href="#DejaVuSans-e7" transform="translate(304.638672 0)"/>
     <use xlink:href="#DejaVuSans-e3" transform="translate(359.619141 0)"/>
     <use xlink:href="#DejaVuSans-6f" transform="translate(420.898438 0)"/>
    </g>
   </g>
   <g id="text_5">
    <!-- Situação financeira -->
    <g style="fill: #111827" transform="translate(494.22825 259.78215) scale(0.12 -0.12)">
     <defs>
      <path id="DejaVuSans-53" d="M 3425 4513 
L 3425 3897 
Q 3066 4069 2747 4153 
Q 2428 4238 2131 4238 
Q 1616 4238 1336 4038 
Q 1056 3838 1056 3469 
Q 1056 3159 1242 3001 
Q 1428 2844 1947 2747 
L 2328 2669 
Q 3034 2534 3370 2195 
Q 3706 1856 3706 1288 
Q 3706 609 3251 259 
Q 2797 -91 1919 -91 
Q 1588 -91 1214 -16 
Q 841 59 441 206 
L 441 856 
Q 825 641 1194 531 
Q 1563 422 1919 422 
Q 2459 422 2753 634 
Q 3047 847 3047 1241 
Q 3047 1584 2836 1778 
Q 2625 1972 2144 2069 
L 1759 2144 
Q 1053 2284 737 2584 
Q 422 2884 422 3419 
Q 422 4038 858 4394 
Q 1294 4750 2059 4750 
Q 2388 4750 2728 4690 
Q 3069 4631 3425 4513 
z
" transform="scale(0.015625)"/>
     </defs>
     <use xlink:href="#DejaVuSans-53"/>
     <use xlink:href="#DejaVuSans-69" transform="translate(63.476562 0)"/>
     <use xlink:href="#DejaVuSans-74" transform="translate(91.259766 0)"/>
     <use xlink:href="#DejaVuSans-75" transform="translate(130.46875 0)"/>
     <use xlink:href="#DejaVuSans-61" transform="translate(193.847656 0)"/>
     <use xlink:href="#DejaVuSans-e7" transform="translate(255.126953 0)"/>
     <use xlink:href="#DejaVuSans-e3" transform="translate(310.107422 0)"/>
     <use xlink:href="#DejaVuSans-6f" transform="translate(371.386719 0)"/>
     <use xlink:href="#DejaVuSans-20" transform="translate(432.568359 0)"/>
     <use xlink:href="#DejaVuSans-66" transform="translate(464.355469 0)"/>
     <use xlink:href="#DejaVuSans-69" transform="translate(499.560547 0)"/>
     <use xlink:href="#DejaVuSans-6e" transform="translate(527.34375 0)"/>
     <use xlink:href="#DejaVuSans-61" transform="translate(590.722656 0)"/>
     <use xlink:href="#DejaVuSans-6e" transform="translate(652.001953 0)"/>
     <use xlink:href="#DejaVuSans-63" transform="translate(715.380859 0)"/>
     <use xlink:href="#DejaVuSans-65" transform="translate(770.361328 0)"/>
     <use xlink:href="#DejaVuSans-69" transform="translate(831.884766 0)"/>
     <use xlink:href="#DejaVuSans-72" transform="translate(859.667969 0)"/>
     <use xlink:href="#DejaVuSans-61" transform="translate(900.78125 0)"/>
    </g>
    <!--  -->
    <g style="fill: #111827" transform="translate(551.952 273.219525) scale(0.12 -0.12)"/>
    <!-- conta -->
    <g style="fill: #111827" transform="translate(535.150125 286.6569) scale(0.12 -0.12)">
     <use xlink:href="#DejaVuSans-63"/>
     <use xlink:href="#DejaVuSans-6f" transform="translate(54.980469 0)"/>
     <use xlink:href="#DejaVuSans-6e" transform="translate(116.162109 0)"/>
     <use xlink:href="#DejaVuSans-74" transform="translate(179.541016 0)"/>
     <use xlink:href="#DejaVuSans-61" transform="translate(218.75 0)"/>
    </g>
    <!-- poupança -->
    <g style="fill: #111827" transform="translate(522.404813 300.094275) scale(0.12 -0.12)">
     <use xlink:href="#DejaVuSans-70"/>
     <use xlink:href="#DejaVuSans-6f" transform="translate(63.476562 0)"/>
     <use xlink:href="#DejaVuSans-75" transform="translate(124.658203 0)"/>
     <use xlink:href="#DejaVuSans-70" transform="translate(188.037109 0)"/>
     <use xlink:href="#DejaVuSans-61" transform="translate(251.513672 0)"/>
     <use xlink:href="#DejaVuSans-6e" transform="translate(312.792969 0)"/>
     <use xlink:href="#DejaVuSans-e7" transform="translate(376.171875 0)"/>
     <use xlink:href="#DejaVuSans-61" transform="translate(431.152344 0)"/>
    </g>
    <!-- outros créditos -->
    <g style="fill: #111827" transform="translate(507.14325 313.53165) scale(0.12 -0.12)">
     <use xlink:href="#DejaVuSans-6f"/>
     <use xlink:href="#DejaVuSans-75" transform="translate(61.181641 0)"/>
     <use xlink:href="#DejaVuSans-74" transform="translate(124.560547 0)"/>
     <use xlink:href="#DejaVuSans-72" transform="translate(163.769531 0)"/>
     <use xlink:href="#DejaVuSans-6f" transform="translate(202.632812 0)"/>
     <use xlink:href="#DejaVuSans-73" transform="translate(263.814453 0)"/>
     <use xlink:href="#DejaVuSans-20" transform="translate(315.914062 0)"/>
     <use xlink:href="#DejaVuSans-63" transform="translate(347.701172 0)"/>
     <use xlink:href="#DejaVuSans-72" transform="translate(402.681641 0)"/>
     <use xlink:href="#DejaVuSans-e9" transform="translate(441.544922 0)"/>
     <use xlink:href="#DejaVuSans-64" transform="translate(503.068359 0)"/>
     <use xlink:href="#DejaVuSans-69" transform="translate(566.544922 0)"/>
     <use xlink:href="#DejaVuSans-74" transform="translate(594.328125 0)"/>
     <use xlink:href="#DejaVuSans-6f" transform="translate(633.537109 0)"/>
     <use xlink:href="#DejaVuSans-73" transform="translate(694.71875 0)"/>
    </g>
   </g>
   <g id="text_6">
    <!-- O que temos nos dados? -->
    <g style="fill: #111827" transform="translate(309.009062 31.5648) scale(0.17 -0.17)">
     <defs>
      <path id="DejaVuSans-Bold-4f" d="M 2719 3878 
Q 2169 3878 1866 3472 
Q 1563 3066 1563 2328 
Q 1563 1594 1866 1187 
Q 2169 781 2719 781 
Q 3272 781 3575 1187 
Q 3878 1594 3878 2328 
Q 3878 3066 3575 3472 
Q 3272 3878 2719 3878 
z
M 2719 4750 
Q 3844 4750 4481 4106 
Q 5119 3463 5119 2328 
Q 5119 1197 4481 553 
Q 3844 -91 2719 -91 
Q 1597 -91 958 553 
Q 319 1197 319 2328 
Q 319 3463 958 4106 
Q 1597 4750 2719 4750 
z
" transform="scale(0.015625)"/>
      <path id="DejaVuSans-Bold-20" transform="scale(0.015625)"/>
      <path id="DejaVuSans-Bold-71" d="M 2181 2772 
Q 1825 2772 1636 2509 
Q 1447 2247 1447 1747 
Q 1447 1247 1636 984 
Q 1825 722 2181 722 
Q 2541 722 2730 984 
Q 2919 1247 2919 1747 
Q 2919 2247 2730 2509 
Q 2541 2772 2181 2772 
z
M 2919 506 
Q 2688 197 2409 53 
Q 2131 -91 1766 -91 
Q 1119 -91 703 423 
Q 288 938 288 1747 
Q 288 2556 703 3067 
Q 1119 3578 1766 3578 
Q 2131 3578 2409 3434 
Q 2688 3291 2919 2981 
L 2919 3500 
L 4044 3500 
L 4044 -1331 
L 2919 -1331 
L 2919 506 
z
" transform="scale(0.015625)"/>
      <path id="DejaVuSans-Bold-75" d="M 500 1363 
L 500 3500 
L 1625 3500 
L 1625 3150 
Q 1625 2866 1622 2436 
Q 1619 2006 1619 1863 
Q 1619 1441 1641 1255 
Q 1663 1069 1716 984 
Q 1784 875 1895 815 
Q 2006 756 2150 756 
Q 2500 756 2700 1025 
Q 2900 1294 2900 1772 
L 2900 3500 
L 4019 3500 
L 4019 0 
L 2900 0 
L 2900 506 
Q 2647 200 2364 54 
Q 2081 -91 1741 -91 
Q 1134 -91 817 281 
Q 500 653 500 1363 
z
" transform="scale(0.015625)"/>
      <path id="DejaVuSans-Bold-65" d="M 4031 1759 
L 4031 1441 
L 1416 1441 
Q 1456 1047 1700 850 
Q 1944 653 2381 653 
Q 2734 653 3104 758 
Q 3475 863 3866 1075 
L 3866 213 
Q 3469 63 3072 -14 
Q 2675 -91 2278 -91 
Q 1328 -91 801 392 
Q 275 875 275 1747 
Q 275 2603 792 3093 
Q 1309 3584 2216 3584 
Q 3041 3584 3536 3087 
Q 4031 2591 4031 1759 
z
M 2881 2131 
Q 2881 2450 2695 2645 
Q 2509 2841 2209 2841 
Q 1884 2841 1681 2658 
Q 1478 2475 1428 2131 
L 2881 2131 
z
" transform="scale(0.015625)"/>
      <path id="DejaVuSans-Bold-74" d="M 1759 4494 
L 1759 3500 
L 2913 3500 
L 2913 2700 
L 1759 2700 
L 1759 1216 
Q 1759 972 1856 886 
Q 1953 800 2241 800 
L 2816 800 
L 2816 0 
L 1856 0 
Q 1194 0 917 276 
Q 641 553 641 1216 
L 641 2700 
L 84 2700 
L 84 3500 
L 641 3500 
L 641 4494 
L 1759 4494 
z
" transform="scale(0.015625)"/>
      <path id="DejaVuSans-Bold-6d" d="M 3781 2919 
Q 3994 3244 4286 3414 
Q 4578 3584 4928 3584 
Q 5531 3584 5847 3212 
Q 6163 2841 6163 2131 
L 6163 0 
L 5038 0 
L 5038 1825 
Q 5041 1866 5042 1909 
Q 5044 1953 5044 2034 
Q 5044 2406 4934 2573 
Q 4825 2741 4581 2741 
Q 4263 2741 4089 2478 
Q 3916 2216 3909 1719 
L 3909 0 
L 2784 0 
L 2784 1825 
Q 2784 2406 2684 2573 
Q 2584 2741 2328 2741 
Q 2006 2741 1831 2477 
Q 1656 2213 1656 1722 
L 1656 0 
L 531 0 
L 531 3500 
L 1656 3500 
L 1656 2988 
Q 1863 3284 2130 3434 
Q 2397 3584 2719 3584 
Q 3081 3584 3359 3409 
Q 3638 3234 3781 2919 
z
" transform="scale(0.015625)"/>
      <path id="DejaVuSans-Bold-6f" d="M 2203 2784 
Q 1831 2784 1636 2517 
Q 1441 2250 1441 1747 
Q 1441 1244 1636 976 
Q 1831 709 2203 709 
Q 2569 709 2762 976 
Q 2956 1244 2956 1747 
Q 2956 2250 2762 2517 
Q 2569 2784 2203 2784 
z
M 2203 3584 
Q 3106 3584 3614 3096 
Q 4122 2609 4122 1747 
Q 4122 884 3614 396 
Q 3106 -91 2203 -91 
Q 1297 -91 786 396 
Q 275 884 275 1747 
Q 275 2609 786 3096 
Q 1297 3584 2203 3584 
z
" transform="scale(0.015625)"/>
      <path id="DejaVuSans-Bold-73" d="M 3272 3391 
L 3272 2541 
Q 2913 2691 2578 2766 
Q 2244 2841 1947 2841 
Q 1628 2841 1473 2761 
Q 1319 2681 1319 2516 
Q 1319 2381 1436 2309 
Q 1553 2238 1856 2203 
L 2053 2175 
Q 2913 2066 3209 1816 
Q 3506 1566 3506 1031 
Q 3506 472 3093 190 
Q 2681 -91 1863 -91 
Q 1516 -91 1145 -36 
Q 775 19 384 128 
L 384 978 
Q 719 816 1070 734 
Q 1422 653 1784 653 
Q 2113 653 2278 743 
Q 2444 834 2444 1013 
Q 2444 1163 2330 1236 
Q 2216 1309 1875 1350 
L 1678 1375 
Q 931 1469 631 1722 
Q 331 1975 331 2491 
Q 331 3047 712 3315 
Q 1094 3584 1881 3584 
Q 2191 3584 2531 3537 
Q 2872 3491 3272 3391 
z
" transform="scale(0.015625)"/>
      <path id="DejaVuSans-Bold-6e" d="M 4056 2131 
L 4056 0 
L 2931 0 
L 2931 347 
L 2931 1631 
Q 2931 2084 2911 2256 
Q 2891 2428 2841 2509 
Q 2775 2619 2662 2680 
Q 2550 2741 2406 2741 
Q 2056 2741 1856 2470 
Q 1656 2200 1656 1722 
L 1656 0 
L 538 0 
L 538 3500 
L 1656 3500 
L 1656 2988 
Q 1909 3294 2193 3439 
Q 2478 3584 2822 3584 
Q 3428 3584 3742 3212 
Q 4056 2841 4056 2131 
z
" transform="scale(0.015625)"/>
      <path id="DejaVuSans-Bold-64" d="M 2919 2988 
L 2919 4863 
L 4044 4863 
L 4044 0 
L 2919 0 
L 2919 506 
Q 2688 197 2409 53 
Q 2131 -91 1766 -91 
Q 1119 -91 703 423 
Q 288 938 288 1747 
Q 288 2556 703 3070 
Q 1119 3584 1766 3584 
Q 2128 3584 2408 3439 
Q 2688 3294 2919 2988 
z
M 2181 722 
Q 2541 722 2730 984 
Q 2919 1247 2919 1747 
Q 2919 2247 2730 2509 
Q 2541 2772 2181 2772 
Q 1825 2772 1636 2509 
Q 1447 2247 1447 1747 
Q 1447 1247 1636 984 
Q 1825 722 2181 722 
z
" transform="scale(0.015625)"/>
      <path id="DejaVuSans-Bold-61" d="M 2106 1575 
Q 1756 1575 1579 1456 
Q 1403 1338 1403 1106 
Q 1403 894 1545 773 
Q 1688 653 1941 653 
Q 2256 653 2472 879 
Q 2688 1106 2688 1447 
L 2688 1575 
L 2106 1575 
z
M 3816 1997 
L 3816 0 
L 2688 0 
L 2688 519 
Q 2463 200 2181 54 
Q 1900 -91 1497 -91 
Q 953 -91 614 226 
Q 275 544 275 1050 
Q 275 1666 698 1953 
Q 1122 2241 2028 2241 
L 2688 2241 
L 2688 2328 
Q 2688 2594 2478 2717 
Q 2269 2841 1825 2841 
Q 1466 2841 1156 2769 
Q 847 2697 581 2553 
L 581 3406 
Q 941 3494 1303 3539 
Q 1666 3584 2028 3584 
Q 2975 3584 3395 3211 
Q 3816 2838 3816 1997 
z
" transform="scale(0.015625)"/>
      <path id="DejaVuSans-Bold-3f" d="M 2216 1575 
L 1088 1575 
L 1088 1728 
Q 1088 1984 1191 2182 
Q 1294 2381 1625 2688 
L 1825 2869 
Q 2003 3031 2086 3175 
Q 2169 3319 2169 3463 
Q 2169 3681 2019 3804 
Q 1869 3928 1600 3928 
Q 1347 3928 1053 3823 
Q 759 3719 441 3513 
L 441 4494 
Q 819 4625 1131 4687 
Q 1444 4750 1734 4750 
Q 2497 4750 2897 4439 
Q 3297 4128 3297 3531 
Q 3297 3225 3175 2983 
Q 3053 2741 2759 2463 
L 2559 2284 
Q 2347 2091 2281 1973 
Q 2216 1856 2216 1716 
L 2216 1575 
z
M 1088 1113 
L 2216 1113 
L 2216 0 
L 1088 0 
L 1088 1113 
z
" transform="scale(0.015625)"/>
     </defs>
     <use xlink:href="#DejaVuSans-Bold-4f"/>
     <use xlink:href="#DejaVuSans-Bold-20" transform="translate(85.009766 0)"/>
     <use xlink:href="#DejaVuSans-Bold-71" transform="translate(119.824219 0)"/>
     <use xlink:href="#DejaVuSans-Bold-75" transform="translate(191.40625 0)"/>
     <use xlink:href="#DejaVuSans-Bold-65" transform="translate(262.597656 0)"/>
     <use xlink:href="#DejaVuSans-Bold-20" transform="translate(330.419922 0)"/>
     <use xlink:href="#DejaVuSans-Bold-74" transform="translate(365.234375 0)"/>
     <use xlink:href="#DejaVuSans-Bold-65" transform="translate(413.037109 0)"/>
     <use xlink:href="#DejaVuSans-Bold-6d" transform="translate(480.859375 0)"/>
     <use xlink:href="#DejaVuSans-Bold-6f" transform="translate(585.058594 0)"/>
     <use xlink:href="#DejaVuSans-Bold-73" transform="translate(653.759766 0)"/>
     <use xlink:href="#DejaVuSans-Bold-20" transform="translate(713.28125 0)"/>
     <use xlink:href="#DejaVuSans-Bold-6e" transform="translate(748.095703 0)"/>
     <use xlink:href="#DejaVuSans-Bold-6f" transform="translate(819.287109 0)"/>
     <use xlink:href="#DejaVuSans-Bold-73" transform="translate(887.988281 0)"/>
     <use xlink:href="#DejaVuSans-Bold-20" transform="translate(947.509766 0)"/>
     <use xlink:href="#DejaVuSans-Bold-64" transform="translate(982.324219 0)"/>
     <use xlink:href="#DejaVuSans-Bold-61" transform="translate(1053.90625 0)"/>
     <use xlink:href="#DejaVuSans-Bold-64" transform="translate(1121.386719 0)"/>
     <use xlink:href="#DejaVuSans-Bold-6f" transform="translate(1192.96875 0)"/>
     <use xlink:href="#DejaVuSans-Bold-73" transform="translate(1261.669922 0)"/>
     <use xlink:href="#DejaVuSans-Bold-3f" transform="translate(1321.191406 0)"/>
    </g>
   </g>
   <g id="text_7">
    <!-- As variáveis observadas descrevem diferentes dimensões do perfil do cliente e das características do contrato. -->
    <g style="fill: #6b7280" transform="translate(119.513594 55.9296) scale(0.11 -0.11)">
     <defs>
      <path id="DejaVuSans-41" d="M 2188 4044 
L 1331 1722 
L 3047 1722 
L 2188 4044 
z
M 1831 4666 
L 2547 4666 
L 4325 0 
L 3669 0 
L 3244 1197 
L 1141 1197 
L 716 0 
L 50 0 
L 1831 4666 
z
" transform="scale(0.015625)"/>
      <path id="DejaVuSans-e1" d="M 2194 1759 
Q 1497 1759 1228 1600 
Q 959 1441 959 1056 
Q 959 750 1161 570 
Q 1363 391 1709 391 
Q 2188 391 2477 730 
Q 2766 1069 2766 1631 
L 2766 1759 
L 2194 1759 
z
M 3341 1997 
L 3341 0 
L 2766 0 
L 2766 531 
Q 2569 213 2275 61 
Q 1981 -91 1556 -91 
Q 1019 -91 701 211 
Q 384 513 384 1019 
Q 384 1609 779 1909 
Q 1175 2209 1959 2209 
L 2766 2209 
L 2766 2266 
Q 2766 2663 2505 2880 
Q 2244 3097 1772 3097 
Q 1472 3097 1187 3025 
Q 903 2953 641 2809 
L 641 3341 
Q 956 3463 1253 3523 
Q 1550 3584 1831 3584 
Q 2591 3584 2966 3190 
Q 3341 2797 3341 1997 
z
M 2290 5119 
L 2912 5119 
L 1894 3944 
L 1415 3944 
L 2290 5119 
z
" transform="scale(0.015625)"/>
      <path id="DejaVuSans-62" d="M 3116 1747 
Q 3116 2381 2855 2742 
Q 2594 3103 2138 3103 
Q 1681 3103 1420 2742 
Q 1159 2381 1159 1747 
Q 1159 1113 1420 752 
Q 1681 391 2138 391 
Q 2594 391 2855 752 
Q 3116 1113 3116 1747 
z
M 1159 2969 
Q 1341 3281 1617 3432 
Q 1894 3584 2278 3584 
Q 2916 3584 3314 3078 
Q 3713 2572 3713 1747 
Q 3713 922 3314 415 
Q 2916 -91 2278 -91 
Q 1894 -91 1617 61 
Q 1341 213 1159 525 
L 1159 0 
L 581 0 
L 581 4863 
L 1159 4863 
L 1159 2969 
z
" transform="scale(0.015625)"/>
      <path id="DejaVuSans-f5" d="M 1959 3097 
Q 1497 3097 1228 2736 
Q 959 2375 959 1747 
Q 959 1119 1226 758 
Q 1494 397 1959 397 
Q 2419 397 2687 759 
Q 2956 1122 2956 1747 
Q 2956 2369 2687 2733 
Q 2419 3097 1959 3097 
z
M 1959 3584 
Q 2709 3584 3137 3096 
Q 3566 2609 3566 1747 
Q 3566 888 3137 398 
Q 2709 -91 1959 -91 
Q 1206 -91 779 398 
Q 353 888 353 1747 
Q 353 2609 779 3096 
Q 1206 3584 1959 3584 
z
M 1948 4281 
L 1769 4453 
Q 1701 4516 1649 4545 
Q 1598 4575 1557 4575 
Q 1438 4575 1382 4461 
Q 1326 4347 1319 4091 
L 929 4091 
Q 935 4513 1094 4742 
Q 1254 4972 1538 4972 
Q 1657 4972 1757 4928 
Q 1857 4884 1973 4781 
L 2151 4609 
Q 2219 4547 2271 4517 
Q 2323 4488 2363 4488 
Q 2482 4488 2538 4602 
Q 2594 4716 2601 4972 
L 2991 4972 
Q 2985 4550 2825 4320 
Q 2666 4091 2382 4091 
Q 2263 4091 2163 4134 
Q 2063 4178 1948 4281 
z
" transform="scale(0.015625)"/>
      <path id="DejaVuSans-ed" d="M 1322 5119 
L 1944 5119 
L 926 3944 
L 447 3944 
L 1322 5119 
z
M 603 3500 
L 1178 3500 
L 1178 0 
L 603 0 
L 603 3500 
z
M 891 3584 
L 891 3584 
z
" transform="scale(0.015625)"/>
      <path id="DejaVuSans-2e" d="M 684 794 
L 1344 794 
L 1344 0 
L 684 0 
L 684 794 
z
" transform="scale(0.015625)"/>
     </defs>
     <use xlink:href="#DejaVuSans-41"/>
     <use xlink:href="#DejaVuSans-73" transform="translate(68.408203 0)"/>
     <use xlink:href="#DejaVuSans-20" transform="translate(120.507812 0)"/>
     <use xlink:href="#DejaVuSans-76" transform="translate(152.294922 0)"/>
     <use xlink:href="#DejaVuSans-61" transform="translate(211.474609 0)"/>
     <use xlink:href="#DejaVuSans-72" transform="translate(272.753906 0)"/>
     <use xlink:href="#DejaVuSans-69" transform="translate(313.867188 0)"/>
     <use xlink:href="#DejaVuSans-e1" transform="translate(341.650391 0)"/>
     <use xlink:href="#DejaVuSans-76" transform="translate(402.929688 0)"/>
     <use xlink:href="#DejaVuSans-65" transform="translate(462.109375 0)"/>
     <use xlink:href="#DejaVuSans-69" transform="translate(523.632812 0)"/>
     <use xlink:href="#DejaVuSans-73" transform="translate(551.416016 0)"/>
     <use xlink:href="#DejaVuSans-20" transform="translate(603.515625 0)"/>
     <use xlink:href="#DejaVuSans-6f" transform="translate(635.302734 0)"/>
     <use xlink:href="#DejaVuSans-62" transform="translate(696.484375 0)"/>
     <use xlink:href="#DejaVuSans-73" transform="translate(759.960938 0)"/>
     <use xlink:href="#DejaVuSans-65" transform="translate(812.060547 0)"/>
     <use xlink:href="#DejaVuSans-72" transform="translate(873.583984 0)"/>
     <use xlink:href="#DejaVuSans-76" transform="translate(914.697266 0)"/>
     <use xlink:href="#DejaVuSans-61" transform="translate(973.876953 0)"/>
     <use xlink:href="#DejaVuSans-64" transform="translate(1035.15625 0)"/>
     <use xlink:href="#DejaVuSans-61" transform="translate(1098.632812 0)"/>
     <use xlink:href="#DejaVuSans-73" transform="translate(1159.912109 0)"/>
     <use xlink:href="#DejaVuSans-20" transform="translate(1212.011719 0)"/>
     <use xlink:href="#DejaVuSans-64" transform="translate(1243.798828 0)"/>
     <use xlink:href="#DejaVuSans-65" transform="translate(1307.275391 0)"/>
     <use xlink:href="#DejaVuSans-73" transform="translate(1368.798828 0)"/>
     <use xlink:href="#DejaVuSans-63" transform="translate(1420.898438 0)"/>
     <use xlink:href="#DejaVuSans-72" transform="translate(1475.878906 0)"/>
     <use xlink:href="#DejaVuSans-65" transform="translate(1514.742188 0)"/>
     <use xlink:href="#DejaVuSans-76" transform="translate(1576.265625 0)"/>
     <use xlink:href="#DejaVuSans-65" transform="translate(1635.445312 0)"/>
     <use xlink:href="#DejaVuSans-6d" transform="translate(1696.96875 0)"/>
     <use xlink:href="#DejaVuSans-20" transform="translate(1794.380859 0)"/>
     <use xlink:href="#DejaVuSans-64" transform="translate(1826.167969 0)"/>
     <use xlink:href="#DejaVuSans-69" transform="translate(1889.644531 0)"/>
     <use xlink:href="#DejaVuSans-66" transform="translate(1917.427734 0)"/>
     <use xlink:href="#DejaVuSans-65" transform="translate(1952.632812 0)"/>
     <use xlink:href="#DejaVuSans-72" transform="translate(2014.15625 0)"/>
     <use xlink:href="#DejaVuSans-65" transform="translate(2053.019531 0)"/>
     <use xlink:href="#DejaVuSans-6e" transform="translate(2114.542969 0)"/>
     <use xlink:href="#DejaVuSans-74" transform="translate(2177.921875 0)"/>
     <use xlink:href="#DejaVuSans-65" transform="translate(2217.130859 0)"/>
     <use xlink:href="#DejaVuSans-73" transform="translate(2278.654297 0)"/>
     <use xlink:href="#DejaVuSans-20" transform="translate(2330.753906 0)"/>
     <use xlink:href="#DejaVuSans-64" transform="translate(2362.541016 0)"/>
     <use xlink:href="#DejaVuSans-69" transform="translate(2426.017578 0)"/>
     <use xlink:href="#DejaVuSans-6d" transform="translate(2453.800781 0)"/>
     <use xlink:href="#DejaVuSans-65" transform="translate(2551.212891 0)"/>
     <use xlink:href="#DejaVuSans-6e" transform="translate(2612.736328 0)"/>
     <use xlink:href="#DejaVuSans-73" transform="translate(2676.115234 0)"/>
     <use xlink:href="#DejaVuSans-f5" transform="translate(2728.214844 0)"/>
     <use xlink:href="#DejaVuSans-65" transform="translate(2789.396484 0)"/>
     <use xlink:href="#DejaVuSans-73" transform="translate(2850.919922 0)"/>
     <use xlink:href="#DejaVuSans-20" transform="translate(2903.019531 0)"/>
     <use xlink:href="#DejaVuSans-64" transform="translate(2934.806641 0)"/>
     <use xlink:href="#DejaVuSans-6f" transform="translate(2998.283203 0)"/>
     <use xlink:href="#DejaVuSans-20" transform="translate(3059.464844 0)"/>
     <use xlink:href="#DejaVuSans-70" transform="translate(3091.251953 0)"/>
     <use xlink:href="#DejaVuSans-65" transform="translate(3154.728516 0)"/>
     <use xlink:href="#DejaVuSans-72" transform="translate(3216.251953 0)"/>
     <use xlink:href="#DejaVuSans-66" transform="translate(3257.365234 0)"/>
     <use xlink:href="#DejaVuSans-69" transform="translate(3292.570312 0)"/>
     <use xlink:href="#DejaVuSans-6c" transform="translate(3320.353516 0)"/>
     <use xlink:href="#DejaVuSans-20" transform="translate(3348.136719 0)"/>
     <use xlink:href="#DejaVuSans-64" transform="translate(3379.923828 0)"/>
     <use xlink:href="#DejaVuSans-6f" transform="translate(3443.400391 0)"/>
     <use xlink:href="#DejaVuSans-20" transform="translate(3504.582031 0)"/>
     <use xlink:href="#DejaVuSans-63" transform="translate(3536.369141 0)"/>
     <use xlink:href="#DejaVuSans-6c" transform="translate(3591.349609 0)"/>
     <use xlink:href="#DejaVuSans-69" transform="translate(3619.132812 0)"/>
     <use xlink:href="#DejaVuSans-65" transform="translate(3646.916016 0)"/>
     <use xlink:href="#DejaVuSans-6e" transform="translate(3708.439453 0)"/>
     <use xlink:href="#DejaVuSans-74" transform="translate(3771.818359 0)"/>
     <use xlink:href="#DejaVuSans-65" transform="translate(3811.027344 0)"/>
     <use xlink:href="#DejaVuSans-20" transform="translate(3872.550781 0)"/>
     <use xlink:href="#DejaVuSans-65" transform="translate(3904.337891 0)"/>
     <use xlink:href="#DejaVuSans-20" transform="translate(3965.861328 0)"/>
     <use xlink:href="#DejaVuSans-64" transform="translate(3997.648438 0)"/>
     <use xlink:href="#DejaVuSans-61" transform="translate(4061.125 0)"/>
     <use xlink:href="#DejaVuSans-73" transform="translate(4122.404297 0)"/>
     <use xlink:href="#DejaVuSans-20" transform="translate(4174.503906 0)"/>
     <use xlink:href="#DejaVuSans-63" transform="translate(4206.291016 0)"/>
     <use xlink:href="#DejaVuSans-61" transform="translate(4261.271484 0)"/>
     <use xlink:href="#DejaVuSans-72" transform="translate(4322.550781 0)"/>
     <use xlink:href="#DejaVuSans-61" transform="translate(4363.664062 0)"/>
     <use xlink:href="#DejaVuSans-63" transform="translate(4424.943359 0)"/>
     <use xlink:href="#DejaVuSans-74" transform="translate(4479.923828 0)"/>
     <use xlink:href="#DejaVuSans-65" transform="translate(4519.132812 0)"/>
     <use xlink:href="#DejaVuSans-72" transform="translate(4580.65625 0)"/>
     <use xlink:href="#DejaVuSans-ed" transform="translate(4621.769531 0)"/>
     <use xlink:href="#DejaVuSans-73" transform="translate(4649.552734 0)"/>
     <use xlink:href="#DejaVuSans-74" transform="translate(4701.652344 0)"/>
     <use xlink:href="#DejaVuSans-69" transform="translate(4740.861328 0)"/>
     <use xlink:href="#DejaVuSans-63" transform="translate(4768.644531 0)"/>
     <use xlink:href="#DejaVuSans-61" transform="translate(4823.625 0)"/>
     <use xlink:href="#DejaVuSans-73" transform="translate(4884.904297 0)"/>
     <use xlink:href="#DejaVuSans-20" transform="translate(4937.003906 0)"/>
     <use xlink:href="#DejaVuSans-64" transform="translate(4968.791016 0)"/>
     <use xlink:href="#DejaVuSans-6f" transform="translate(5032.267578 0)"/>
     <use xlink:href="#DejaVuSans-20" transform="translate(5093.449219 0)"/>
     <use xlink:href="#DejaVuSans-63" transform="translate(5125.236328 0)"/>
     <use xlink:href="#DejaVuSans-6f" transform="translate(5180.216797 0)"/>
     <use xlink:href="#DejaVuSans-6e" transform="translate(5241.398438 0)"/>
     <use xlink:href="#DejaVuSans-74" transform="translate(5304.777344 0)"/>
     <use xlink:href="#DejaVuSans-72" transform="translate(5343.986328 0)"/>
     <use xlink:href="#DejaVuSans-61" transform="translate(5385.099609 0)"/>
     <use xlink:href="#DejaVuSans-74" transform="translate(5446.378906 0)"/>
     <use xlink:href="#DejaVuSans-6f" transform="translate(5485.587891 0)"/>
     <use xlink:href="#DejaVuSans-2e" transform="translate(5545.019531 0)"/>
    </g>
   </g>
  </g>
 </g>
 <defs>
  <clipPath id="p0bb716f0d5">
   <rect x="7.2" y="7.2" width="838.08" height="406.08"/>
  </clipPath>
 </defs>
</svg>
